<svg width="48" height="48" viewBox="0 0 48 48" fill="none" xmlns="http://www.w3.org/2000/svg">
<path d="M46.5 6H38.5L38 5L39 1.5L42.5 1L45.5 2L46.5 3.5V6Z" fill="white" fill-opacity="0.3"/>
<path d="M42.1875 0C41.9963 0 41.8073 0.00984375 41.6208 0.0280312C41.5489 0.0104063 41.4742 0 41.3969 0H13.125C9.81656 0 7.125 2.69156 7.125 6V9.75C7.125 10.2678 7.54481 10.6875 8.0625 10.6875C8.58019 10.6875 9 10.2678 9 9.75V6C9 3.72544 10.8504 1.875 13.125 1.875H37.9167C36.9605 2.91131 36.375 4.29459 36.375 5.8125C36.375 5.84419 36.3767 5.87541 36.3798 5.90625C36.3767 5.93709 36.375 5.96831 36.375 6V12.4062C36.375 12.924 36.7948 13.3437 37.3125 13.3437C37.8302 13.3437 38.25 12.924 38.25 12.4062V6.75H47.0625C47.5802 6.75 48 6.33028 48 5.8125C48 2.60747 45.3925 0 42.1875 0ZM38.3637 4.875C38.7855 3.15516 40.3394 1.875 42.1876 1.875C44.0358 1.875 45.5896 3.15516 46.0114 4.875H38.3637Z" fill="white"/>
<path d="M31.6748 5.06152H25.7178C25.2001 5.06152 24.7803 5.48124 24.7803 5.99902C24.7803 6.5168 25.2001 6.93652 25.7178 6.93652H29.5307L18.8965 17.5707L12.6629 11.3371C12.2967 10.971 11.7033 10.9711 11.337 11.3371L2.92292 19.7512C2.55682 20.1173 2.55682 20.7109 2.92292 21.0771C3.10601 21.2601 3.34582 21.3516 3.58582 21.3516C3.82582 21.3516 4.06563 21.2601 4.24873 21.077L12 13.3258L18.2336 19.5594C18.5998 19.9255 19.1932 19.9255 19.5595 19.5594L30.7373 8.38159V11.9561C30.7373 12.4739 31.1571 12.8936 31.6748 12.8936C32.1925 12.8936 32.6123 12.4739 32.6123 11.9561V5.99902C32.6123 5.48124 32.1925 5.06152 31.6748 5.06152Z" fill="white"/>
<path d="M1.60022 22.3997C1.42594 22.2253 1.18406 22.125 0.9375 22.125C0.690938 22.125 0.449062 22.2253 0.274687 22.3997C0.100219 22.5741 0 22.8159 0 23.0625C0 23.3091 0.100219 23.5509 0.274687 23.7253C0.449156 23.8997 0.690938 24 0.9375 24C1.18406 24 1.42594 23.8997 1.60022 23.7253C1.77469 23.5509 1.875 23.3091 1.875 23.0625C1.875 22.8159 1.77469 22.5741 1.60022 22.3997Z" fill="white"/>
<path d="M28.5469 22.6406L34 21.5L33.5625 28.6406L41.5781 28.9688V30.0469L40.5938 33.3281L39 35.5L35.5 37.5L30.7969 36.8438L26.8594 34.3594L25.5938 30.0469V26.1094L28.5469 22.6406Z" fill="#88BC63" stroke="black"/>
<path d="M4.45312 45.8906L3 41.8125H27.8906V43.0781L28.8281 45.1875V46.875L10.0781 47.4375L4.45312 45.8906Z" fill="white" fill-opacity="0.3"/>
<path d="M42.7509 29.4394C42.751 28.9216 42.3312 28.5019 41.8135 28.5019H34.6885V21.3769C34.6885 20.8591 34.2687 20.4394 33.751 20.4394C28.7884 20.4394 24.751 24.4767 24.751 29.4394C24.751 34.4021 28.7884 38.4394 33.751 38.4394C34.6635 38.4394 35.5445 38.3024 36.375 38.0488V42.1877C36.375 44.3589 34.6087 46.1252 32.4375 46.1252C30.2663 46.1252 28.5 44.3589 28.5 42.1877C28.5 42.1586 28.4982 42.1298 28.4957 42.1014C28.4993 42.0681 28.5013 42.0344 28.5013 42.0002C28.5013 41.4824 28.0815 41.0627 27.5638 41.0627H9V21.0029C9 20.4851 8.58019 20.0654 8.0625 20.0654C7.54481 20.0654 7.125 20.4851 7.125 21.0029V41.0627H3C2.48231 41.0627 2.0625 41.4824 2.0625 42.0002C2.0625 45.3086 4.75406 48.0002 8.0625 48.0002H32.4375C35.6425 48.0002 38.25 45.3927 38.25 42.1877V37.3111C38.25 37.2851 38.2482 37.2596 38.2461 37.2341C40.9368 35.6764 42.7509 32.7658 42.7509 29.4394ZM8.0625 46.1252C6.11034 46.1252 4.47056 44.7621 4.04494 42.9377H26.675C26.8331 44.159 27.3706 45.2625 28.1666 46.1252H8.0625ZM33.751 36.5644C29.8223 36.5644 26.626 33.3682 26.626 29.4394C26.626 25.8283 29.3262 22.8361 32.8135 22.3758V29.4394C32.8135 29.9572 33.2333 30.3769 33.751 30.3769H40.8146C40.3542 33.8642 37.362 36.5644 33.751 36.5644Z" fill="white"/>
<path d="M37.1719 26.25V16.3125L43.5938 17.8594L46.2188 21.9844L46.9219 26.25H37.1719Z" fill="#DA7E78" stroke="black"/>
<path d="M36.9375 15.1904C36.4198 15.1904 36 15.6101 36 16.1279V26.2529C36 26.7707 36.4198 27.1904 36.9375 27.1904H47.0625C47.5802 27.1904 48 26.7707 48 26.2529C48 20.153 43.0373 15.1904 36.9375 15.1904ZM37.875 25.3154V17.1129C42.1943 17.5525 45.638 20.9961 46.0776 25.3154H37.875Z" fill="white"/>
<path d="M19.7812 30.375H11.7188C11.2011 30.375 10.7812 30.7947 10.7812 31.3125C10.7812 31.8303 11.2011 32.25 11.7188 32.25H19.7812C20.2989 32.25 20.7188 31.8303 20.7188 31.3125C20.7188 30.7947 20.2989 30.375 19.7812 30.375Z" fill="white"/>
<path d="M24.1471 35.1497C23.9728 34.9753 23.7309 34.875 23.4844 34.875C23.2378 34.875 22.9959 34.9753 22.8216 35.1497C22.6472 35.3241 22.5469 35.5659 22.5469 35.8125C22.5469 36.0591 22.6471 36.3009 22.8216 36.4753C22.996 36.6497 23.2378 36.75 23.4844 36.75C23.7309 36.75 23.9728 36.6497 24.1471 36.4753C24.3215 36.3009 24.4219 36.0591 24.4219 35.8125C24.4219 35.5659 24.3216 35.3241 24.1471 35.1497Z" fill="white"/>
<path d="M19.7812 34.875H11.7188C11.2011 34.875 10.7812 35.2947 10.7812 35.8125C10.7812 36.3303 11.2011 36.75 11.7188 36.75H19.7812C20.2989 36.75 20.7188 36.3303 20.7188 35.8125C20.7188 35.2947 20.2989 34.875 19.7812 34.875Z" fill="white"/>
<path d="M14.9455 25.875H11.7188C11.2011 25.875 10.7812 26.2947 10.7812 26.8125C10.7812 27.3303 11.2011 27.75 11.7188 27.75H14.9455C15.4632 27.75 15.883 27.3303 15.883 26.8125C15.883 26.2947 15.4632 25.875 14.9455 25.875Z" fill="white"/>
</svg>
