<svg width="48" height="48" viewBox="0 0 48 48" fill="none" xmlns="http://www.w3.org/2000/svg">
<path d="M45.6774 10.0645H20.9032C20.0477 10.0645 19.3548 10.7574 19.3548 11.6128V18.5806V22.5243C20.3303 24.075 20.9032 25.9037 20.9032 27.8709C20.9032 28.1326 20.8839 28.3888 20.8637 28.6451H23.2258H45.6774C46.5329 28.6451 47.2258 27.9522 47.2258 27.0967V11.6128C47.2258 10.7574 46.5329 10.0645 45.6774 10.0645Z" fill="white" fill-opacity="0.3"/>
<path d="M21.6774 27.8709C21.6774 21.8942 16.8155 17.0322 10.8387 17.0322C4.86194 17.0322 0 21.8942 0 27.8709C0 33.8477 4.86194 38.7096 10.8387 38.7096C16.8155 38.7096 21.6774 33.8477 21.6774 27.8709ZM1.54839 27.8709C1.54839 22.7481 5.71587 18.5806 10.8387 18.5806C15.9615 18.5806 20.129 22.7481 20.129 27.8709C20.129 32.9938 15.9615 37.1613 10.8387 37.1613C5.71587 37.1613 1.54839 32.9938 1.54839 27.8709Z" fill="white"/>
<path d="M11.6129 6.19355H36.3871V7.74194H37.9355V3.87097C37.9355 1.73652 36.199 0 34.0645 0H13.9355C11.801 0 10.0645 1.73652 10.0645 3.87097V15.4839H11.6129V6.19355ZM13.9355 1.54839H34.0645C35.345 1.54839 36.3871 2.59045 36.3871 3.87097V4.64516H11.6129V3.87097C11.6129 2.59045 12.655 1.54839 13.9355 1.54839Z" fill="white"/>
<path d="M10.0645 44.1293C10.0645 46.2637 11.801 48.0002 13.9355 48.0002H34.0645C36.199 48.0002 37.9355 46.2637 37.9355 44.1293V40.2583H10.0645V44.1293ZM11.6129 41.8067H36.3871V44.1293C36.3871 45.4098 35.345 46.4518 34.0645 46.4518H13.9355C12.655 46.4518 11.6129 45.4098 11.6129 44.1293V41.8067Z" fill="white"/>
<path d="M27.0968 43.355H20.9032V44.9034H27.0968V43.355Z" fill="#88BC63"/>
<path d="M45.6774 9.29053H20.9032C19.6227 9.29053 18.5806 10.3326 18.5806 11.6131V18.5808H19.3548H20.129H46.4516V27.097C46.4516 27.5243 46.104 27.8712 45.6774 27.8712H23.2258V29.4196H45.6774C46.9579 29.4196 48 28.3775 48 27.097V11.6131C48 10.3326 46.9579 9.29053 45.6774 9.29053ZM20.9032 10.8389H45.6774C46.104 10.8389 46.4516 11.1858 46.4516 11.6131V12.3873H20.129V11.6131C20.129 11.1858 20.4766 10.8389 20.9032 10.8389ZM20.129 17.0325V13.9357H46.4516V17.0325H20.129Z" fill="white"/>
<path d="M39.4839 25.2525C40.0521 25.9028 40.8774 26.3225 41.8065 26.3225C43.5143 26.3225 44.9032 24.9336 44.9032 23.2257C44.9032 21.5178 43.5143 20.1289 41.8065 20.1289C40.8774 20.1289 40.0521 20.5485 39.4839 21.1988C38.9156 20.5485 38.0903 20.1289 37.1613 20.1289C35.4534 20.1289 34.0645 21.5178 34.0645 23.2257C34.0645 24.9336 35.4534 26.3225 37.1613 26.3225C38.0903 26.3225 38.9156 25.9028 39.4839 25.2525ZM41.8065 21.6773C42.6604 21.6773 43.3548 22.3717 43.3548 23.2257C43.3548 24.0796 42.6604 24.7741 41.8065 24.7741C40.9525 24.7741 40.2581 24.0796 40.2581 23.2257C40.2581 22.3717 40.9525 21.6773 41.8065 21.6773ZM35.6129 23.2257C35.6129 22.3717 36.3074 21.6773 37.1613 21.6773C38.0152 21.6773 38.7097 22.3717 38.7097 23.2257C38.7097 24.0796 38.0152 24.7741 37.1613 24.7741C36.3074 24.7741 35.6129 24.0796 35.6129 23.2257Z" fill="white"/>
<path d="M37.9355 30.9678H36.3871V38.7097H37.9355V30.9678Z" fill="white"/>
<path d="M11.6129 21.7168V20.1289H10.0645V21.7168C8.32723 21.9119 6.96774 23.3728 6.96774 25.1612C6.96774 27.0819 8.53084 28.645 10.4516 28.645H11.2258C12.2926 28.645 13.1613 29.5129 13.1613 30.5805C13.1613 31.6481 12.2926 32.516 11.2258 32.516H10.4516C9.38478 32.516 8.51613 31.6481 8.51613 30.5805V30.1934H6.96774V30.5805C6.96774 32.3689 8.32723 33.8298 10.0645 34.0249V35.6128H11.6129V34.0249C13.3502 33.8298 14.7097 32.3689 14.7097 30.5805C14.7097 28.6597 13.1466 27.0966 11.2258 27.0966H10.4516C9.38478 27.0966 8.51613 26.2288 8.51613 25.1612C8.51613 24.0936 9.38478 23.2257 10.4516 23.2257H11.2258C12.2926 23.2257 13.1613 24.0936 13.1613 25.1612V25.5483H14.7097V25.1612C14.7097 23.3728 13.3502 21.9119 11.6129 21.7168Z" fill="#88BC63"/>
<path d="M24.7742 30.9678H23.2258V32.5162H24.7742V30.9678Z" fill="#88BC63"/>
<path d="M27.871 30.9678H26.3226V32.5162H27.871V30.9678Z" fill="#88BC63"/>
<path d="M30.9677 30.9678H29.4194V32.5162H30.9677V30.9678Z" fill="#88BC63"/>
</svg>
