<?xml version="1.0" standalone="no"?>
<!DOCTYPE svg PUBLIC "-//W3C//DTD SVG 1.0//EN" "http://www.w3.org/TR/2001/REC-SVG-20010904/DTD/svg10.dtd">
<svg xmlns="http://www.w3.org/2000/svg" xmlns:xlink="http://www.w3.org/1999/xlink" id="body_1" width="98" height="105">

<g transform="matrix(0.75 0 0 0.75 0.2500019 -0)">
    <path d="M51 4.0829C 59.6632 -0.918814 70.3368 -0.918813 79 4.0829L79 4.0829L115.086 24.9171C 123.749 29.9188 129.086 39.1624 129.086 49.1658L129.086 49.1658L129.086 90.8342C 129.086 100.838 123.749 110.081 115.086 115.083L115.086 115.083L79 135.917C 70.3368 140.919 59.6632 140.919 51 135.917L51 135.917L14.9141 115.083C 6.25089 110.081 0.914124 100.838 0.914124 90.8342L0.914124 90.8342L0.914124 49.1658C 0.914124 39.1624 6.25089 29.9188 14.9141 24.9171L14.9141 24.9171L51 4.0829z" stroke="none" fill="#262C52" fill-rule="nonzero" />
</g>
</svg>