<svg width="48" height="48" viewBox="0 0 48 48" fill="none" xmlns="http://www.w3.org/2000/svg">
<path d="M34.3125 0.9375H13.6875C11.6166 0.9375 9.9375 2.61658 9.9375 4.6875V43.3125C9.9375 45.3834 11.6166 47.0625 13.6875 47.0625H34.3125C36.3834 47.0625 38.0625 45.3834 38.0625 43.3125V4.6875C38.0625 2.61658 36.3834 0.9375 34.3125 0.9375Z" fill="#E6E6E6" fill-opacity="0.3"/>
<path d="M33.375 18.2812C33.375 23.4587 29.1775 27.6562 24 27.6562C18.8225 27.6562 14.625 23.4587 14.625 18.2812C14.625 13.1038 18.8225 8.90625 24 8.90625C29.1775 8.90625 33.375 13.1038 33.375 18.2812Z" fill="#88BC63"/>
<path d="M34.3125 0H13.6875C11.1028 0 9 2.10278 9 4.6875V43.3125C9 45.8972 11.1028 48 13.6875 48H34.3125C36.8972 48 39 45.8972 39 43.3125V4.6875C39 2.10278 36.8972 0 34.3125 0ZM30.7365 1.875L29.5525 3.75H18.4475L17.2635 1.875H30.7365ZM37.125 43.3125C37.125 44.8634 35.8634 46.125 34.3125 46.125H13.6875C12.1366 46.125 10.875 44.8634 10.875 43.3125V4.6875C10.875 3.1366 12.1366 1.875 13.6875 1.875H15.0458L17.1383 5.18811C17.3101 5.46021 17.6093 5.625 17.9308 5.625H30.0692C30.3907 5.625 30.6899 5.46021 30.8617 5.18811L32.9542 1.875H34.3125C35.8634 1.875 37.125 3.1366 37.125 4.6875V43.3125Z" fill="white"/>
<path d="M29.1562 34.875C29.1562 34.3572 28.7366 33.9375 28.2188 33.9375H19.7812C19.2634 33.9375 18.8438 34.3572 18.8438 34.875C18.8438 35.3928 19.2634 35.8125 19.7812 35.8125H28.2188C28.7366 35.8125 29.1562 35.3928 29.1562 34.875Z" fill="#88BC63"/>
<path d="M24 38.625C24 39.1417 24.4208 39.5625 24.9375 39.5625C25.4542 39.5625 25.875 39.1417 25.875 38.625C25.875 38.1083 25.4542 37.6875 24.9375 37.6875C24.4208 37.6875 24 38.1083 24 38.625Z" fill="#88BC63"/>
<path d="M16.5 38.625C16.5 39.1417 16.9208 39.5625 17.4375 39.5625H21.1875C21.7042 39.5625 22.125 39.1417 22.125 38.625C22.125 38.1083 21.7042 37.6875 21.1875 37.6875H17.4375C16.9208 37.6875 16.5 38.1083 16.5 38.625Z" fill="#88BC63"/>
<path d="M30.5625 37.6875H28.6875C28.17 37.6875 27.75 38.1083 27.75 38.625C27.75 39.1417 28.17 39.5625 28.6875 39.5625H30.5625C31.0792 39.5625 31.5 39.1417 31.5 38.625C31.5 38.1083 31.0792 37.6875 30.5625 37.6875Z" fill="#88BC63"/>
<path d="M17.4375 41.4375C16.9208 41.4375 16.5 41.8583 16.5 42.375C16.5 42.8917 16.9208 43.3125 17.4375 43.3125C17.9542 43.3125 18.375 42.8917 18.375 42.375C18.375 41.8583 17.9542 41.4375 17.4375 41.4375Z" fill="#88BC63"/>
<path d="M30.5625 41.4375H21.1875C20.6708 41.4375 20.25 41.8583 20.25 42.375C20.25 42.8917 20.6708 43.3125 21.1875 43.3125H30.5625C31.0792 43.3125 31.5 42.8917 31.5 42.375C31.5 41.8583 31.0792 41.4375 30.5625 41.4375Z" fill="#88BC63"/>
<path d="M24 7.96875C18.3138 7.96875 13.6875 12.5951 13.6875 18.2812C13.6875 23.9674 18.3138 28.5938 24 28.5938C29.6862 28.5938 34.3125 23.9674 34.3125 18.2812C34.3125 12.5951 29.6862 7.96875 24 7.96875ZM24 26.7188C19.3477 26.7188 15.5625 22.9336 15.5625 18.2812C15.5625 13.6289 19.3477 9.84375 24 9.84375C28.6523 9.84375 32.4375 13.6289 32.4375 18.2812C32.4375 22.9336 28.6523 26.7188 24 26.7188Z" fill="white"/>
<path d="M28.0715 14.762L22.3535 19.7436L20.0456 16.8487C19.7226 16.4437 19.133 16.3774 18.728 16.7C18.3233 17.0226 18.2567 17.6126 18.5793 18.0176C18.5793 18.0176 21.4874 21.6647 21.498 21.6783C21.8199 22.0818 22.4608 22.1371 22.8467 21.8006L29.3034 16.1756C29.6938 15.8354 29.7344 15.2432 29.3942 14.8528C29.054 14.4625 28.4619 14.4218 28.0715 14.762Z" fill="white"/>
</svg>
